<?xml version="1.0" encoding="UTF-8"?>
<svg xmlns="http://www.w3.org/2000/svg" width="1024" height="1024" viewBox="0 0 1024 1024">
  <path fill="#68a6de" fill-rule="evenodd" d="M 540 613.5 L 539.5 668.25 L 540.25 669.25 L 551.75 669.25 L 552.5 667.5 L 552.5 614.75 L 551.75 613.5 Z M 404 613.5 L 402.75 616 L 403.25 668.75 L 415 669.25 L 416.25 668 L 416 614.5 L 414.5 613.5 Z M 608.25 614.75 L 603.75 612.75 L 593 612.75 L 586.5 615.5 L 581.25 620.5 L 581 616 L 579.75 613.75 L 568.75 614 L 568.75 669 L 581 669 L 581.25 631.5 L 586.75 626 L 592.25 624 L 597.75 624.25 L 601 626.25 L 602.75 629 L 603.5 632 L 603.75 668.75 L 616.25 669 L 616.25 627.75 L 613 619.25 Z M 386.25 613.5 L 376.75 613.75 L 376.25 618 L 375.5 618.25 L 371 614.75 L 365.5 612.75 L 355.25 612.75 L 349.5 615.5 L 342.75 622.5 L 338.75 633.5 L 338.5 647.75 L 340.75 656.25 L 344.75 663 L 349.5 667.25 L 356 670 L 363.25 670 L 370.75 667 L 374.75 663.25 L 374.5 674.25 L 371.25 679.5 L 367.25 681.5 L 360.75 682 L 350 680.5 L 346.5 678.75 L 343 687.25 L 343.25 689 L 353.25 693 L 368 693 L 377.25 690 L 385 682.25 L 387 677 L 387.75 669.25 L 388 615 Z M 362.25 623.25 L 365.5 623.25 L 370.75 625.25 L 374.75 629.75 L 375 652 L 370 657.5 L 364.75 659.5 L 358.75 658.5 L 356.5 657 L 353.25 652.25 L 351.5 644.25 L 352.25 633.75 L 354.25 628.5 L 357.5 625.25 Z M 480.25 598.75 L 472.75 601.5 L 471.75 602.75 L 471 613.5 L 463.75 614 L 463.5 624 L 470.5 625.25 L 470.5 656.5 L 472.75 664.25 L 475.5 667.25 L 481.25 670 L 492.75 670 L 497 668 L 496.25 659.75 L 486.5 659.5 L 484.25 657.5 L 483.5 654.75 L 483.25 625.25 L 485.5 624.5 L 495.5 624.5 L 496 614.25 L 494.5 613.5 L 483.75 613.75 L 483.25 599 Z M 539.75 590.5 L 539.5 603.25 L 540.5 604 L 552 603.75 L 553 602.5 L 552.5 591 Z M 402.75 590.75 L 403.25 603.75 L 416 603.5 L 415.75 590.75 Z M 632 589.5 L 631.75 669 L 644.25 668.75 L 644.25 650.5 L 650.25 644.25 L 666.75 669.25 L 681 669.25 L 681.25 667.75 L 659.25 637.5 L 678.25 616 L 679 614 L 664.25 613.75 L 644.75 636 L 644.5 590 Z M 507.5 589.5 L 507.75 659.75 L 510.75 666 L 514.5 669 L 519.25 670.25 L 526.75 670 L 529.75 668.25 L 529.25 660 L 523.25 659.5 L 520.25 656.25 L 520.25 591 L 519.5 589.5 Z M 463.75 590.5 L 456.25 588.75 L 448.5 588.75 L 442.75 590.75 L 437.75 595 L 434.75 600.5 L 434 613.25 L 427 613.75 L 426.25 614.75 L 426.25 624 L 427 624.75 L 433.25 624.5 L 434.25 625.75 L 434.5 669 L 447 668.75 L 446.75 625.75 L 447.75 624.5 L 458.75 624.5 L 459.25 623.75 L 459.25 614.75 L 458.5 613.75 L 447 613.25 L 447.25 603.25 L 449.5 600.25 L 451.5 599.25 L 462.5 600.25 L 464.25 592.75 Z M 470 486.5 L 427 487 L 426.75 529 L 429.25 531 L 456.5 531 L 472 530 L 472 489.25 Z M 438.25 498.75 L 439 498 L 460 498 L 460.5 519.25 L 438.75 519.5 Z M 525 464.5 L 524.5 480.75 L 513.5 480.75 L 512.75 481.75 L 512.75 491.5 L 514.25 493 L 516 493.25 L 524.25 493 L 524.75 508.25 L 526.5 509.25 L 534.25 509.25 L 535.25 508.75 L 535.25 465.5 L 534.5 464.5 Z M 546 464 L 545 465.25 L 545.25 475.25 L 565.25 475.5 L 566.25 478 L 566 486.25 L 549.25 486.5 L 548.5 487.5 L 548.75 529.75 L 551 531 L 591 531 L 592.75 530.25 L 593.5 528.5 L 593.75 489.5 L 591.75 486.5 L 579 486.25 L 579 464.5 L 577.5 463.75 Z M 560 498.5 L 581.25 498 L 582 498.75 L 581.75 519.25 L 560.5 519.75 Z M 616 466 L 612.5 463 L 590.5 463.5 L 589.75 464.5 L 589.75 473 L 591 475 L 604.5 475.5 L 604.25 540.75 L 539.5 540.75 L 538.75 540 L 538.5 520 L 537.5 519.25 L 515 519.5 L 514.25 502 L 512.75 501.25 L 505.75 501.25 L 505.25 502 L 505.5 530 L 507.25 531 L 527 531 L 527.5 550 L 530.5 552.25 L 613.5 552 L 616.25 549 Z M 407 463.75 L 404.75 467 L 404.75 548.5 L 405.5 550.25 L 408.25 552.25 L 491.25 552 L 493.5 549 L 493.25 501.75 L 491.25 501 L 483.25 501 L 482.25 502.5 L 482 540.5 L 416.25 540.25 L 416.25 475.25 L 443.75 475 L 444.75 473.75 L 444.5 464.25 L 443.5 463.25 L 409.5 463 Z M 493.75 421.75 L 482.75 421.5 L 482 444.25 L 480 443.5 L 456.25 443 L 455.5 443.75 L 455.5 453.75 L 457 454.5 L 483 454.25 L 483.5 445 L 493.75 444.5 Z M 483 390 L 482.25 391 L 482.25 410.5 L 482.75 411.25 L 493.25 411.25 L 493.75 391 L 492.75 390 Z M 527.5 407.25 L 527.5 416.75 L 528.25 417.25 L 548.75 417.5 L 548.75 430.5 L 550.75 432.75 L 591.25 433 L 593.5 431.5 L 594 391.75 L 591.5 388.5 L 550.75 388.5 L 548.5 391.25 L 548.25 406.75 Z M 560.75 399.25 L 582.25 400 L 581.75 421.25 L 560.25 421.25 Z M 527.5 389 L 527.75 399 L 538.75 399.25 L 540 398.5 L 539.75 389 Z M 427.75 388.75 L 426.75 390.25 L 426.75 430.5 L 427.75 432.25 L 429.25 433 L 470.75 433 L 472 432 L 472.25 391.25 L 470.25 388.5 Z M 438.5 400 L 460.25 399.5 L 460.5 421.25 L 438.75 421.5 Z M 404.75 370.5 L 404.75 449.75 L 408 453.25 L 443.75 453.25 L 444.75 452 L 444.75 444 L 444 442.5 L 416.25 442.25 L 416.75 378.25 L 490.25 378.25 L 505 379 L 505.75 445.25 L 505.25 446.25 L 494.5 446.25 L 493.75 447.5 L 493.25 457.5 L 493.75 465.25 L 503.25 466.5 L 502.75 477 L 493.5 476.75 L 493 466 L 489.75 464.75 L 456.75 464.5 L 455.5 465.5 L 456 475.25 L 482 475.25 L 482.25 490.25 L 483 491.5 L 501.25 491.5 L 502.25 490.5 L 502.5 477.75 L 513.25 478.25 L 513.25 465.75 L 503.75 465.5 L 503.25 458.5 L 503.75 457.5 L 515 457 L 515 443.5 L 515.75 442.75 L 526.25 443 L 526.75 452.75 L 527.75 453.5 L 555 453.75 L 565.25 453 L 565.25 443.75 L 564.5 442.75 L 538.75 442.75 L 538.25 427 L 537.5 426.5 L 527.75 426.5 L 526.75 427.25 L 526.25 431.75 L 516 431.25 L 516.5 378.25 L 604 378.25 L 604.75 385.5 L 604.75 442.25 L 577.5 442.5 L 577.5 453 L 613 453.25 L 616.25 450.25 L 616.25 369.75 L 612.5 366.5 L 526 366.5 L 542 360.25 L 552.25 355 L 563.25 347.25 L 569.25 340.25 L 572.25 333.5 L 572.75 327.5 L 572 323.75 L 568.25 317.5 L 561.5 312.75 L 556.5 311.5 L 551 311.5 L 543 313.75 L 534.75 318.5 L 525.5 327.5 L 517.75 339.5 L 512.75 350 L 511 357.5 L 516.75 366 L 513.5 368.5 L 511.25 371.75 L 509.75 372 L 505.25 367.5 L 502.25 366 L 503 363.5 L 505.25 363 L 509.5 358.75 L 510 356 L 505.25 343.5 L 498 331 L 485.25 317.75 L 478 313.75 L 469 311.5 L 460.5 312.75 L 455.25 315.75 L 451.75 319.5 L 448.75 327.5 L 450.5 337 L 454.5 343.25 L 464.5 352.25 L 472.5 357.25 L 494.25 366.25 L 494 367 L 408.5 366.75 Z M 560.5 327.5 L 559.5 333 L 557.5 336.5 L 553.5 340.5 L 539.5 348.5 L 527 353.5 L 524.5 353.5 L 532.25 337.75 L 542.5 327.25 L 551.75 323.25 L 557 324 Z M 462 325.5 L 465.75 323.25 L 470 323.25 L 475.5 325.25 L 482.25 330.25 L 490.5 340.75 L 496.5 353.75 L 490.75 352.5 L 480.5 348.5 L 467.75 340.5 L 464.25 337 L 461.25 332 L 461 327.5 Z M 334.5 363.5 L 325.75 384.25 L 319.75 406.25 L 317.5 423.75 L 317.5 455.25 L 321.75 481 L 328.75 502 L 334.75 515.25 L 344.75 532 L 348 535 L 352.5 535 L 356 531.5 L 356 527.5 L 350.25 519.5 L 343.25 507 L 337.25 492.25 L 332.25 476 L 328.25 449 L 328.5 428.25 L 330.25 412.5 L 333.25 398.5 L 340.25 378.5 L 346.25 365.75 L 355.25 350.75 L 370.5 331.5 L 389.5 313.25 L 404.25 302.25 L 414 296.25 L 435.75 285.25 L 462.75 276.25 L 488.5 271.5 L 508 270.25 L 521.75 270.5 L 551.5 274.25 L 568 278.25 L 580 282.25 L 594.5 288.25 L 609.75 296.25 L 635.25 314.25 L 647.25 325.25 L 657.5 336.5 L 666.5 348.25 L 674.5 360.75 L 684.5 382 L 691.5 405 L 694.5 426.25 L 694.75 448 L 692.5 468.75 L 687.5 488.25 L 680.5 506 L 675.5 516 L 666.75 528.5 L 666.5 531.75 L 667.5 534.25 L 670 536.25 L 672.75 537 L 676 536 L 687.25 518.25 L 696 499.25 L 702 479.25 L 705.25 461.25 L 706.25 451.25 L 706.25 429.75 L 704.25 411.5 L 701 395.75 L 691.25 368.5 L 682 351.5 L 675 340.75 L 664.25 327 L 649.25 311.5 L 628.25 294.75 L 614.25 285.75 L 601 278.75 L 579 269.75 L 561.5 264.75 L 538.75 260.75 L 523.75 259.5 L 498.5 259.5 L 484 260.75 L 466.75 263.75 L 451.5 267.5 L 436.25 272.75 L 420.75 279.5 L 404.5 288.5 L 389.5 298.75 L 376.5 309.5 L 366.75 318.75 L 353.75 333.5 L 342.5 349.5 Z"/>
</svg>
