<?xml version="1.0" encoding="UTF-8"?>
<svg xmlns="http://www.w3.org/2000/svg" width="469" height="513" viewBox="0 0 469 513">
  <path fill="#68a6de" fill-rule="evenodd" d="M 263 393.5 L 262.5 448.25 L 263.25 449.25 L 274.75 449.25 L 275.5 447.5 L 275.5 394.75 L 274.75 393.5 Z M 127 393.5 L 125.75 396 L 126.25 448.75 L 138 449.25 L 139.25 448 L 139 394.5 L 137.5 393.5 Z M 331.25 394.75 L 326.75 392.75 L 316 392.75 L 309.5 395.5 L 304.25 400.5 L 304 396 L 302.75 393.75 L 291.75 394 L 291.75 449 L 304 449 L 304.25 411.5 L 309.75 406 L 315.25 404 L 320.75 404.25 L 324 406.25 L 325.75 409 L 326.5 412 L 326.75 448.75 L 339.25 449 L 339.25 407.75 L 336 399.25 Z M 109.25 393.5 L 99.75 393.75 L 99.25 398 L 98.5 398.25 L 94 394.75 L 88.5 392.75 L 78.25 392.75 L 72.5 395.5 L 65.75 402.5 L 61.75 413.5 L 61.5 427.75 L 63.75 436.25 L 67.75 443 L 72.5 447.25 L 79 450 L 86.25 450 L 93.75 447 L 97.75 443.25 L 97.5 454.25 L 94.25 459.5 L 90.25 461.5 L 83.75 462 L 73 460.5 L 69.5 458.75 L 66 467.25 L 66.25 469 L 76.25 473 L 91 473 L 100.25 470 L 108 462.25 L 110 457 L 110.75 449.25 L 111 395 Z M 85.25 403.25 L 88.5 403.25 L 93.75 405.25 L 97.75 409.75 L 98 432 L 93 437.5 L 87.75 439.5 L 81.75 438.5 L 79.5 437 L 76.25 432.25 L 74.5 424.25 L 75.25 413.75 L 77.25 408.5 L 80.5 405.25 Z M 203.25 378.75 L 195.75 381.5 L 194.75 382.75 L 194 393.5 L 186.75 394 L 186.5 404 L 193.5 405.25 L 193.5 436.5 L 195.75 444.25 L 198.5 447.25 L 204.25 450 L 215.75 450 L 220 448 L 219.25 439.75 L 209.5 439.5 L 207.25 437.5 L 206.5 434.75 L 206.25 405.25 L 208.5 404.5 L 218.5 404.5 L 219 394.25 L 217.5 393.5 L 206.75 393.75 L 206.25 379 Z M 262.75 370.5 L 262.5 383.25 L 263.5 384 L 275 383.75 L 276 382.5 L 275.5 371 Z M 125.75 370.75 L 126.25 383.75 L 139 383.5 L 138.75 370.75 Z M 355 369.5 L 354.75 449 L 367.25 448.75 L 367.25 430.5 L 373.25 424.25 L 389.75 449.25 L 404 449.25 L 404.25 447.75 L 382.25 417.5 L 401.25 396 L 402 394 L 387.25 393.75 L 367.75 416 L 367.5 370 Z M 230.5 369.5 L 230.75 439.75 L 233.75 446 L 237.5 449 L 242.25 450.25 L 249.75 450 L 252.75 448.25 L 252.25 440 L 246.25 439.5 L 243.25 436.25 L 243.25 371 L 242.5 369.5 Z M 186.75 370.5 L 179.25 368.75 L 171.5 368.75 L 165.75 370.75 L 160.75 375 L 157.75 380.5 L 157 393.25 L 150 393.75 L 149.25 394.75 L 149.25 404 L 150 404.75 L 156.25 404.5 L 157.25 405.75 L 157.5 449 L 170 448.75 L 169.75 405.75 L 170.75 404.5 L 181.75 404.5 L 182.25 403.75 L 182.25 394.75 L 181.5 393.75 L 170 393.25 L 170.25 383.25 L 172.5 380.25 L 174.5 379.25 L 185.5 380.25 L 187.25 372.75 Z M 193 266.5 L 150 267 L 149.75 309 L 152.25 311 L 179.5 311 L 195 310 L 195 269.25 Z M 161.25 278.75 L 162 278 L 183 278 L 183.5 299.25 L 161.75 299.5 Z M 248 244.5 L 247.5 260.75 L 236.5 260.75 L 235.75 261.75 L 235.75 271.5 L 237.25 273 L 239 273.25 L 247.25 273 L 247.75 288.25 L 249.5 289.25 L 257.25 289.25 L 258.25 288.75 L 258.25 245.5 L 257.5 244.5 Z M 269 244 L 268 245.25 L 268.25 255.25 L 288.25 255.5 L 289.25 258 L 289 266.25 L 272.25 266.5 L 271.5 267.5 L 271.75 309.75 L 274 311 L 314 311 L 315.75 310.25 L 316.5 308.5 L 316.75 269.5 L 314.75 266.5 L 302 266.25 L 302 244.5 L 300.5 243.75 Z M 283 278.5 L 304.25 278 L 305 278.75 L 304.75 299.25 L 283.5 299.75 Z M 339 246 L 335.5 243 L 313.5 243.5 L 312.75 244.5 L 312.75 253 L 314 255 L 327.5 255.5 L 327.25 320.75 L 262.5 320.75 L 261.75 320 L 261.5 300 L 260.5 299.25 L 238 299.5 L 237.25 282 L 235.75 281.25 L 228.75 281.25 L 228.25 282 L 228.5 310 L 230.25 311 L 250 311 L 250.5 330 L 253.5 332.25 L 336.5 332 L 339.25 329 Z M 130 243.75 L 127.75 247 L 127.75 328.5 L 128.5 330.25 L 131.25 332.25 L 214.25 332 L 216.5 329 L 216.25 281.75 L 214.25 281 L 206.25 281 L 205.25 282.5 L 205 320.5 L 139.25 320.25 L 139.25 255.25 L 166.75 255 L 167.75 253.75 L 167.5 244.25 L 166.5 243.25 L 132.5 243 Z M 216.75 201.75 L 205.75 201.5 L 205 224.25 L 203 223.5 L 179.25 223 L 178.5 223.75 L 178.5 233.75 L 180 234.5 L 206 234.25 L 206.5 225 L 216.75 224.5 Z M 206 170 L 205.25 171 L 205.25 190.5 L 205.75 191.25 L 216.25 191.25 L 216.75 171 L 215.75 170 Z M 250.5 187.25 L 250.5 196.75 L 251.25 197.25 L 271.75 197.5 L 271.75 210.5 L 273.75 212.75 L 314.25 213 L 316.5 211.5 L 317 171.75 L 314.5 168.5 L 273.75 168.5 L 271.5 171.25 L 271.25 186.75 Z M 283.75 179.25 L 305.25 180 L 304.75 201.25 L 283.25 201.25 Z M 250.5 169 L 250.75 179 L 261.75 179.25 L 263 178.5 L 262.75 169 Z M 150.75 168.75 L 149.75 170.25 L 149.75 210.5 L 150.75 212.25 L 152.25 213 L 193.75 213 L 195 212 L 195.25 171.25 L 193.25 168.5 Z M 161.5 180 L 183.25 179.5 L 183.5 201.25 L 161.75 201.5 Z M 127.75 150.5 L 127.75 229.75 L 131 233.25 L 166.75 233.25 L 167.75 232 L 167.75 224 L 167 222.5 L 139.25 222.25 L 139.75 158.25 L 213.25 158.25 L 228 159 L 228.75 225.25 L 228.25 226.25 L 217.5 226.25 L 216.75 227.5 L 216.25 237.5 L 216.75 245.25 L 226.25 246.5 L 225.75 257 L 216.5 256.75 L 216 246 L 212.75 244.75 L 179.75 244.5 L 178.5 245.5 L 179 255.25 L 205 255.25 L 205.25 270.25 L 206 271.5 L 224.25 271.5 L 225.25 270.5 L 225.5 257.75 L 236.25 258.25 L 236.25 245.75 L 226.75 245.5 L 226.25 238.5 L 226.75 237.5 L 238 237 L 238 223.5 L 238.75 222.75 L 249.25 223 L 249.75 232.75 L 250.75 233.5 L 278 233.75 L 288.25 233 L 288.25 223.75 L 287.5 222.75 L 261.75 222.75 L 261.25 207 L 260.5 206.5 L 250.75 206.5 L 249.75 207.25 L 249.25 211.75 L 239 211.25 L 239.5 158.25 L 327 158.25 L 327.75 165.5 L 327.75 222.25 L 300.5 222.5 L 300.5 233 L 336 233.25 L 339.25 230.25 L 339.25 149.75 L 335.5 146.5 L 249 146.5 L 265 140.25 L 275.25 135 L 286.25 127.25 L 292.25 120.25 L 295.25 113.5 L 295.75 107.5 L 295 103.75 L 291.25 97.5 L 284.5 92.75 L 279.5 91.5 L 274 91.5 L 266 93.75 L 257.75 98.5 L 248.5 107.5 L 240.75 119.5 L 235.75 130 L 234 137.5 L 239.75 146 L 236.5 148.5 L 234.25 151.75 L 232.75 152 L 228.25 147.5 L 225.25 146 L 226 143.5 L 228.25 143 L 232.5 138.75 L 233 136 L 228.25 123.5 L 221 111 L 208.25 97.75 L 201 93.75 L 192 91.5 L 183.5 92.75 L 178.25 95.75 L 174.75 99.5 L 171.75 107.5 L 173.5 117 L 177.5 123.25 L 187.5 132.25 L 195.5 137.25 L 217.25 146.25 L 217 147 L 131.5 146.75 Z M 283.5 107.5 L 282.5 113 L 280.5 116.5 L 276.5 120.5 L 262.5 128.5 L 250 133.5 L 247.5 133.5 L 255.25 117.75 L 265.5 107.25 L 274.75 103.25 L 280 104 Z M 185 105.5 L 188.75 103.25 L 193 103.25 L 198.5 105.25 L 205.25 110.25 L 213.5 120.75 L 219.5 133.75 L 213.75 132.5 L 203.5 128.5 L 190.75 120.5 L 187.25 117 L 184.25 112 L 184 107.5 Z M 57.5 143.5 L 48.75 164.25 L 42.75 186.25 L 40.5 203.75 L 40.5 235.25 L 44.75 261 L 51.75 282 L 57.75 295.25 L 67.75 312 L 71 315 L 75.5 315 L 79 311.5 L 79 307.5 L 73.25 299.5 L 66.25 287 L 60.25 272.25 L 55.25 256 L 51.25 229 L 51.5 208.25 L 53.25 192.5 L 56.25 178.5 L 63.25 158.5 L 69.25 145.75 L 78.25 130.75 L 93.5 111.5 L 112.5 93.25 L 127.25 82.25 L 137 76.25 L 158.75 65.25 L 185.75 56.25 L 211.5 51.5 L 231 50.25 L 244.75 50.5 L 274.5 54.25 L 291 58.25 L 303 62.25 L 317.5 68.25 L 332.75 76.25 L 358.25 94.25 L 370.25 105.25 L 380.5 116.5 L 389.5 128.25 L 397.5 140.75 L 407.5 162 L 414.5 185 L 417.5 206.25 L 417.75 228 L 415.5 248.75 L 410.5 268.25 L 403.5 286 L 398.5 296 L 389.75 308.5 L 389.5 311.75 L 390.5 314.25 L 393 316.25 L 395.75 317 L 399 316 L 410.25 298.25 L 419 279.25 L 425 259.25 L 428.25 241.25 L 429.25 231.25 L 429.25 209.75 L 427.25 191.5 L 424 175.75 L 414.25 148.5 L 405 131.5 L 398 120.75 L 387.25 107 L 372.25 91.5 L 351.25 74.75 L 337.25 65.75 L 324 58.75 L 302 49.75 L 284.5 44.75 L 261.75 40.75 L 246.75 39.5 L 221.5 39.5 L 207 40.75 L 189.75 43.75 L 174.5 47.5 L 159.25 52.75 L 143.75 59.5 L 127.5 68.5 L 112.5 78.75 L 99.5 89.5 L 89.75 98.75 L 76.75 113.5 L 65.5 129.5 Z"/>

  <!-- Replace wordmark -->
  <rect x="55.50" y="362.50" width="355.00" height="116.50" fill="#ffffff"/>
  <text x="234.50" y="455.00" text-anchor="middle" fill="#68a6de"
        font-family="DejaVu Sans, Arial, Helvetica, sans-serif"
        font-size="92" font-weight="400" letter-spacing="0">givio cards</text>

</svg>
